<svg xmlns="http://www.w3.org/2000/svg" width="2500" height="2500" viewBox="0 0 521.309 466.0613">
  <g id="katman_2" data-name="katman 2">
    <g id="katman_1-2" data-name="katman 1">
    
      <g id="eib2Oy">
        <g>
          <path d="M292.8484,435.8494c4.7253-20.5044,19.0288-33.438,33.3817-46.4939-12.21,24.386-22.8862,49.3561-30.5889,76.7058-2.78-4.271-4.8832-7.4082-6.8934-10.6039C273.97,431.9651,254.52,413.092,231.5887,397.6781c-31.5989-21.24-63.9422-41.2952-96.6963-60.7-25.86-15.32-51.0324-31.6537-73.202-52.1369-35.526-32.8234-56.6277-72.53-55.63-121.8277.4809-23.7592,4.7094-46.9851,18.0138-67.5692C41.0272,69.2161,65.7631,54.3467,95.45,47.1192c37.5771-9.1485,73.1655-3.842,106.2646,16.33,15.6361,9.5294,26.2256,23.6171,34.11,39.8986.343.7085.4025,1.6319,1.757,1.9668,1.0559-3.75,2.3871-7.4552,3.13-11.2747,6.7229-34.5779,26.97-58.9523,57.1371-75.7905C330.73-.1042,365.4936-5.0815,401.78,5.4508c36.9055,10.7121,59.1064,36.0339,68.8979,72.701,4.3857,16.4235,4.8012,33.158,3.0508,49.9894-.0962.9247-.3234,1.8357-.5674,3.1829-2.01-1.301-2.3124-3.251-2.8113-4.8885-3.7639-12.3561-8.6787-24.1567-16.7612-34.3729C426.0135,57.208,390.3891,39.3267,345.5905,42.785c-27.4318,2.1177-52.3806,11.4833-73.02,30.5161a89.9166,89.9166,0,0,0-27.4925,47.823c-.7,3.1735-1.1913,6.4248-2.8381,9.5756-2.8756-2.0593-4.0741-5.1852-5.71-7.8934C220.8172,96.7905,197.0873,83.29,167.6083,79.7108c-27.7019-3.3631-54.1808.9394-78.23,16.0561-26.862,16.8849-40.7591,41.9573-43.1,72.9071-3.5011,46.2926,14.335,84.4193,48.0605,115.406,22.839,20.9842,49.3484,36.8276,75.8837,52.5724,26.394,15.6609,53.1293,30.7947,77.242,49.9976,14.9527,11.9081,27.5525,26.0069,39.06,41.1653C288.4761,430.3858,290.515,432.89,292.8484,435.8494Z" fill="#FF931E"/>
          <path d="M296.6591,325.3988c.278-16.8294,7.1073-30.4768,20.6477-40.3476,14.0165-10.2179,25.1119-22.906,34.3215-37.47,7.9469-12.5672,19.1108-20.479,34.1879-21.8833,12.5492-1.1688,23.6827,3.2339,30.2292,13.602,13.292,21.051,30.1422,39.0605,46.2308,57.752,16.6919,19.3921,12.2483,44.9336,2.0245,57.5078-7.4294,9.1376-17.7578,11.5344-28.7642,12.5283a92.1463,92.1463,0,0,1-35.1472-3.8413c-15.1245-4.5419-30.281-2.8912-45.3219.5471-10.4081,2.3792-20.6532,3.4021-31.0283-.2923C307.976,357.7817,296.7037,342.2869,296.6591,325.3988Z" fill="#FF931E"/>
          <path d="M387.6025,177.94c-.1106,12.7525-3.1449,24.5153-11.9473,34.246-11.1567,12.3335-28.4032,13.3177-40.9869,2.3752-16.9247-14.7174-21.6218-39.298-11.5516-61.3677a78.6127,78.6127,0,0,1,22.0461-29.0473,24.8391,24.8391,0,0,1,14.5482-5.7947c7.9385-.45,13.6943,3.38,17.7434,11.9019,5.7588,12.12,7.9456,25.13,9.4128,38.3077C387.2134,171.6709,387.9152,174.7571,387.6025,177.94Z" fill="#FF931E"/>
          <path d="M399.8582,184.5419c2.1167-18.1594,5.6994-36.961,16.0257-53.7594,5.6209-9.1438,13.8233-11.42,23.6374-7.0462,8.7531,3.9013,14.6161,10.8606,19.2708,18.8712,8.021,13.804,13.7742,28.3016,10.8436,44.7309-2.1235,11.9052-7.4694,22.2369-16.8024,30.1361-17.5388,14.8444-40.1243,9.1041-48.7136-12.2695a44.1505,44.1505,0,0,1-2.8814-9.7917C400.7473,192.1814,400.4074,188.9266,399.8582,184.5419Z" fill="#FF931E"/>
          <path d="M521.2977,237.8039c-.01,13.88-6.6493,28.694-22.874,38.4621-20.2814,12.21-41.1005,1.2719-42.8187-22.444-.9339-12.8893,3.7255-24.0934,10.0757-34.7649,5.1145-8.5949,11.1348-16.513,19.1818-22.6863,9.67-7.4183,18.8209-6.2509,26.2895,3.417C517.1826,207.5942,521.562,221.966,521.2977,237.8039Z" fill="#FF931E"/>
          <path d="M261.9472,226.932c.2443-12.4213,3.3181-23.9927,10.3775-34.35a35.8031,35.8031,0,0,1,3.02-3.8633c7.8662-8.6888,16.8932-9.6535,25.4052-1.6608,14.9484,14.0362,23.8161,31.4069,25.45,52.0015a34.1123,34.1123,0,0,1-5.6139,21.8255c-8.2,12.4065-22.7235,15.6039-35.4769,7.871C269.43,259.2488,261.7462,245.3737,261.9472,226.932Z" fill="#FF931E"/>
          <path d="M306.3255,403.0569c-3.296,4.2572-6.2092,8.02-9.3428,12.0671q-5.9406-3.8461-11.864-7.6822a2.7783,2.7783,0,0,0-.3318-.2387c-18.6593-8.3925-33.1614-22.761-49.51-34.4713-12.77-9.1472-26.1407-17.35-39.5359-25.522a9.2406,9.2406,0,0,1-2.4924-2.0489C232.7943,360.5826,273.0673,374.5635,306.3255,403.0569Z" fill="#FF931E"/>
          <path d="M229.2471,129.5211c-2.1033-2.3246-3.983-4.2622-5.7076-6.3292C202.7644,98.2936,175.75,88.4282,143.98,90.5652c-30.8141,2.0727-57.7179,13.1184-79.4835,36.2087-.2662-1.6923.8147-2.4193,1.3327-3.3172A27.5665,27.5665,0,0,1,67.96,120.46c13.6167-17.6386,31.5681-28.7937,52.98-34.0535,27.7459-6.8159,54.9224-5.401,80.7347,8.0424,10.7027,5.5741,19.2327,13.6884,26.6431,23.1666C231.3191,121.4547,230.7809,125.0236,229.2471,129.5211Z" fill="#FF931E"/>
          <path d="M126.1769,337.197a375.3087,375.3087,0,0,1-48.9907-26.5608c-29.616-18.7837-52.0917-43.6679-65.977-76.05C2.6734,214.6791-.4834,193.816.059,172.2754c.1783-7.079.5343-14.1244,2.5112-21.0614-.0844,1.6523-.1269,3.3079-.2595,4.9563C.1772,182.68,6.0744,207.5649,16.8694,231.65,30.2912,261.5949,52.911,283.58,77.8257,303.71c15.2152,12.2937,31.8223,22.5227,48.4587,32.71.1152.07.214.1673.324.247C126.9378,336.9057,126.8854,337.0643,126.1769,337.197Z" fill="#FF931E"/>
          <path d="M353.4153,371.298c-8.2568,25.9734-15.0031,52.2563-18.1059,80.5436-2.8469-3.13-4.7979-5.3419-6.8212-7.4856-4.5866-4.86-9.149-9.7448-13.8542-14.4878-1.3417-1.3525-1.8168-2.3823-.8835-4.2054,1.7913-3.4988,3.3222-7.131,5.1794-11.1843,2.9927,2.7108,5.6513,5.1192,8.9528,8.11.1627-10.1977,3.3331-18.7109,7.8456-26.7088C340.6694,387.1221,346.1973,378.73,353.4153,371.298Z" fill="#FF931E"/>
        </g>
      </g>
    </g>
  </g>
</svg>
